<svg xmlns="http://www.w3.org/2000/svg" width="1200" height="630" viewBox="0 0 1200 630" role="img" aria-labelledby="title desc">
  <title id="title">Create your first FormOS form</title>
  <desc id="desc">A blue FormOS themed illustration showing a form builder and published checklist.</desc>
  <rect width="1200" height="630" fill="#f3f8ff"/>
  <rect x="70" y="70" width="1060" height="490" rx="42" fill="#ffffff" stroke="#bfdbfe" stroke-width="3"/>
  <rect x="120" y="120" width="270" height="390" rx="26" fill="#eff6ff"/>
  <rect x="160" y="158" width="80" height="80" rx="20" fill="#2563eb"/>
  <path d="M184 179h30l16 16v38h-46z" fill="none" stroke="#ffffff" stroke-width="8" stroke-linejoin="round"/>
  <path d="M214 181v17h17" fill="none" stroke="#ffffff" stroke-width="8" stroke-linejoin="round"/>
  <text x="160" y="285" fill="#0f172a" font-family="Inter, Arial, sans-serif" font-size="34" font-weight="700">Form Builder</text>
  <text x="160" y="328" fill="#475569" font-family="Inter, Arial, sans-serif" font-size="22">Drag fields, publish,</text>
  <text x="160" y="360" fill="#475569" font-family="Inter, Arial, sans-serif" font-size="22">and share instantly.</text>
  <rect x="455" y="125" width="590" height="82" rx="18" fill="#ffffff" stroke="#dbeafe" stroke-width="3"/>
  <rect x="485" y="152" width="40" height="28" rx="8" fill="#dbeafe"/>
  <rect x="550" y="150" width="265" height="16" rx="8" fill="#2563eb"/>
  <rect x="550" y="176" width="170" height="12" rx="6" fill="#cbd5e1"/>
  <rect x="455" y="240" width="590" height="82" rx="18" fill="#ffffff" stroke="#dbeafe" stroke-width="3"/>
  <rect x="485" y="267" width="40" height="28" rx="8" fill="#dbeafe"/>
  <rect x="550" y="265" width="315" height="16" rx="8" fill="#7c3aed"/>
  <rect x="550" y="291" width="210" height="12" rx="6" fill="#cbd5e1"/>
  <rect x="455" y="355" width="590" height="82" rx="18" fill="#ffffff" stroke="#dbeafe" stroke-width="3"/>
  <rect x="485" y="382" width="40" height="28" rx="8" fill="#dbeafe"/>
  <rect x="550" y="380" width="245" height="16" rx="8" fill="#0f172a"/>
  <rect x="550" y="406" width="260" height="12" rx="6" fill="#cbd5e1"/>
  <rect x="455" y="470" width="220" height="46" rx="16" fill="#2563eb"/>
  <text x="500" y="501" fill="#ffffff" font-family="Inter, Arial, sans-serif" font-size="20" font-weight="700">Publish Form</text>
</svg>
