<svg xmlns="http://www.w3.org/2000/svg" width="1200" height="630" viewBox="0 0 1200 630" role="img" aria-labelledby="title desc">
  <title id="title">Share FormOS forms</title>
  <desc id="desc">A FormOS sharing graphic with public links, QR codes, and embeds.</desc>
  <rect width="1200" height="630" fill="#eef2ff"/>
  <rect x="90" y="115" width="330" height="400" rx="36" fill="#ffffff" stroke="#c7d2fe" stroke-width="3"/>
  <text x="145" y="180" fill="#0f172a" font-family="Inter, Arial, sans-serif" font-size="34" font-weight="700">Public Link</text>
  <rect x="145" y="230" width="220" height="44" rx="16" fill="#dbeafe"/>
  <rect x="145" y="305" width="220" height="26" rx="13" fill="#2563eb"/>
  <rect x="145" y="350" width="155" height="18" rx="9" fill="#94a3b8"/>
  <rect x="435" y="115" width="330" height="400" rx="36" fill="#ffffff" stroke="#c7d2fe" stroke-width="3"/>
  <text x="490" y="180" fill="#0f172a" font-family="Inter, Arial, sans-serif" font-size="34" font-weight="700">QR Code</text>
  <rect x="515" y="230" width="170" height="170" rx="18" fill="#f8fafc" stroke="#94a3b8" stroke-width="3"/>
  <g fill="#0f172a">
    <rect x="540" y="255" width="36" height="36"/><rect x="624" y="255" width="36" height="36"/><rect x="540" y="339" width="36" height="36"/>
    <rect x="594" y="309" width="22" height="22"/><rect x="640" y="338" width="20" height="20"/><rect x="600" y="365" width="28" height="28"/>
  </g>
  <rect x="780" y="115" width="330" height="400" rx="36" fill="#ffffff" stroke="#c7d2fe" stroke-width="3"/>
  <text x="835" y="180" fill="#0f172a" font-family="Inter, Arial, sans-serif" font-size="34" font-weight="700">Embed</text>
  <rect x="835" y="235" width="220" height="145" rx="20" fill="#f8fafc" stroke="#bfdbfe" stroke-width="3"/>
  <path d="M910 292l-40 35 40 35M980 292l40 35-40 35" fill="none" stroke="#2563eb" stroke-width="12" stroke-linecap="round" stroke-linejoin="round"/>
  <path d="M958 278l-30 100" fill="none" stroke="#7c3aed" stroke-width="12" stroke-linecap="round"/>
  <rect x="835" y="420" width="185" height="42" rx="14" fill="#2563eb"/>
  <text x="875" y="448" fill="#ffffff" font-family="Inter, Arial, sans-serif" font-size="19" font-weight="700">Website ready</text>
</svg>
